<?xml version="1.0" encoding="UTF-8"?>
<!DOCTYPE svg PUBLIC "-//W3C//DTD SVG 1.1//EN" "http://www.w3.org/Graphics/SVG/1.1/DTD/svg11.dtd">
<svg xmlns="http://www.w3.org/2000/svg" style="background: #ffffff; background-color: var(--ge-dark-color, #121212); color-scheme: dark;" xmlns:xlink="http://www.w3.org/1999/xlink" version="1.1" width="922px" height="1222px" viewBox="-0.5 -0.5 922 1222"><defs/><rect fill="#ffffff" style="fill: var(--ge-dark-color, #121212);" width="100%" height="100%" x="0" y="0"/><g><g data-cell-id="0"><g data-cell-id="1"><g data-cell-id="170uqo_uxkxGRzme1Cgs-12"><g/><g data-cell-id="3BqDlNYimaB-27dZIoCA-92"><g><rect x="508" y="50" width="196.68" height="273.17" fill="#f5f6f7" style="fill: rgb(26, 26, 27);" stroke="none" pointer-events="all"/></g><g><g fill="#000000" style="fill: rgb(255, 255, 255);" font-family="Helvetica" font-weight="bold" font-size="12px"><text x="518" y="73"><tspan>Legend</tspan></text></g></g></g><g data-cell-id="3BqDlNYimaB-27dZIoCA-5"><g><rect x="789.46" y="532.95" width="81.4" height="83.06" fill="none" stroke="none" pointer-events="all"/><path d="M 857.18 584.77 L 854.66 584.77 C 856.68 582.26 857.69 579.44 857.69 576.3 C 857.69 573.2 856.68 570.34 854.66 567.71 L 857.21 567.71 C 859.36 570.19 860.4 573.04 860.4 576.3 C 860.4 579.59 859.33 582.45 857.18 584.77 Z M 848.77 584.77 L 846.22 584.77 C 844.1 582.48 843.03 579.65 843.03 576.3 C 843.03 573.08 844.1 570.19 846.22 567.71 L 848.74 567.71 C 846.75 570.31 845.74 573.17 845.74 576.3 C 845.74 579.44 846.75 582.23 848.77 584.77 Z M 840.76 581.24 C 840.07 581.64 839.06 581.83 837.71 581.83 C 836.16 581.83 834.9 581.36 833.96 580.43 C 833.01 579.5 832.51 578.32 832.51 576.86 C 832.51 575.19 833.01 573.85 834.05 572.86 C 835.09 571.9 836.45 571.4 838.18 571.4 C 839.38 571.4 840.23 571.56 840.76 571.87 L 840.76 574.47 C 840.1 574.01 839.38 573.76 838.59 573.76 C 837.71 573.76 836.98 574.01 836.48 574.53 C 835.97 575.06 835.69 575.74 835.69 576.67 C 835.69 577.54 835.94 578.26 836.45 578.75 C 836.95 579.25 837.64 579.5 838.49 579.5 C 839.28 579.5 840.04 579.25 840.76 578.78 L 840.76 581.24 Z M 830.65 581.61 L 827.56 581.61 L 827.56 576.09 C 827.56 574.53 826.99 573.79 825.89 573.79 C 825.35 573.79 824.91 574.01 824.56 574.41 C 824.22 574.81 824.03 575.34 824.03 575.96 L 824.03 581.64 L 820.91 581.64 L 820.91 571.71 L 824.03 571.71 L 824.03 573.29 L 824.06 573.29 C 824.82 572.08 825.89 571.49 827.31 571.49 C 829.54 571.49 830.65 572.86 830.65 575.59 L 830.65 581.61 Z M 818.29 581.61 L 815.2 581.61 L 815.2 580.09 L 815.14 580.09 C 814.38 581.27 813.34 581.86 812.05 581.86 C 809.72 581.86 808.55 580.46 808.55 577.67 L 808.55 571.68 L 811.64 571.68 L 811.64 577.39 C 811.64 578.78 812.21 579.5 813.34 579.5 C 813.91 579.5 814.35 579.31 814.7 578.91 C 815.05 578.54 815.2 578.01 815.2 577.36 L 815.2 571.68 L 818.29 571.68 L 818.29 581.61 Z M 807.55 569.26 C 807.14 569.1 806.76 569.01 806.38 569.01 C 805.37 569.01 804.87 569.54 804.87 570.62 L 804.87 571.68 L 807.17 571.68 L 807.17 573.94 L 804.87 573.94 L 804.87 581.61 L 801.78 581.61 L 801.78 573.94 L 800.08 573.94 L 800.08 571.68 L 801.78 571.68 L 801.78 570.44 C 801.78 569.32 802.16 568.39 802.91 567.71 C 803.67 567.02 804.68 566.68 805.97 566.68 C 806.6 566.68 807.14 566.75 807.55 566.87 L 807.55 569.26 Z M 853.87 532.95 L 800.77 532.95 C 794.56 532.95 789.46 538.01 789.46 544.09 L 789.46 604.88 C 789.46 610.99 794.59 616.02 800.77 616.02 L 859.55 616.02 C 865.75 616.02 870.86 610.96 870.86 604.88 L 870.86 549.4 L 853.87 532.95 Z M 863.86 604.88 C 863.86 607.27 861.97 609.13 859.55 609.13 L 800.77 609.13 C 798.34 609.13 796.45 607.27 796.45 604.88 L 796.45 544.09 C 796.45 541.71 798.34 539.84 800.77 539.84 L 850.38 539.84 L 850.38 553.12 L 863.86 553.12 L 863.86 604.88 L 863.86 604.88 Z" fill="#00188d" style="fill: rgb(191, 211, 255);" stroke="none" pointer-events="all"/></g><g><g fill="#000000" style="fill: rgb(255, 255, 255);" font-family="Helvetica" text-anchor="middle" font-size="12px"><text x="830.16" y="527.95">Source Code</text></g></g></g><g data-cell-id="3BqDlNYimaB-27dZIoCA-9"><g><rect x="560" y="541.71" width="131.12" height="65.56" rx="9.83" ry="9.83" fill="#ffffff" style="fill: var(--ge-dark-color, #121212); stroke: rgb(255, 255, 255);" stroke="#000000" pointer-events="all"/></g><g><g fill="#000000" style="fill: rgb(255, 255, 255);" font-family="Helvetica" text-anchor="middle" font-size="12px"><text x="625.56" y="579.49"><tspan>Code Visitors</tspan></text></g></g></g><g data-cell-id="3BqDlNYimaB-27dZIoCA-49"><g><path d="M 453.36 574.49 L 553.63 574.49" fill="none" stroke="#000000" style="stroke: rgb(255, 255, 255);" stroke-miterlimit="10" pointer-events="stroke"/><path d="M 558.88 574.49 L 551.88 577.99 L 553.63 574.49 L 551.88 570.99 Z" fill="#000000" style="fill: rgb(255, 255, 255); stroke: rgb(255, 255, 255);" stroke="#000000" stroke-miterlimit="10" pointer-events="all"/></g><g data-cell-id="170uqo_uxkxGRzme1Cgs-23"><g><g fill="#000000" style="fill: rgb(255, 255, 255);" font-family="Helvetica" text-anchor="middle" font-size="11px"><rect fill="#ffffff" stroke="none" x="489" y="555" width="24" height="14" style="fill: var(--ge-dark-color, #121212);" stroke-width="0"/><text x="500.15" y="565.2">DFS</text></g></g></g></g><g data-cell-id="3BqDlNYimaB-27dZIoCA-51"><g><path d="M 387.8 607.27 L 387.8 699.24" fill="none" stroke="#000000" style="stroke: rgb(255, 255, 255);" stroke-miterlimit="10" pointer-events="stroke"/><path d="M 387.8 704.49 L 384.3 697.49 L 387.8 699.24 L 391.3 697.49 Z" fill="#000000" style="fill: rgb(255, 255, 255); stroke: rgb(255, 255, 255);" stroke="#000000" stroke-miterlimit="10" pointer-events="all"/></g></g><g data-cell-id="3BqDlNYimaB-27dZIoCA-10"><g><rect x="322.24" y="541.71" width="131.12" height="65.56" fill="#ffffff" style="fill: var(--ge-dark-color, #121212); stroke: rgb(255, 255, 255);" stroke="#000000" pointer-events="all"/><path d="M 335.24 541.71 L 335.24 607.27 M 440.36 541.71 L 440.36 607.27" fill="none" stroke="#000000" style="stroke: rgb(255, 255, 255);" stroke-miterlimit="10" pointer-events="all"/></g><g><g fill="#000000" style="fill: rgb(255, 255, 255);" font-family="Helvetica" text-anchor="middle" font-size="12px"><text x="387.59" y="579.49"><tspan>Gather</tspan></text></g></g></g><g data-cell-id="3BqDlNYimaB-27dZIoCA-52"><g><path d="M 322.24 738.39 L 177.49 738.39" fill="none" stroke="#000000" style="stroke: rgb(255, 255, 255);" stroke-miterlimit="10" pointer-events="stroke"/><path d="M 172.24 738.39 L 179.24 734.89 L 177.49 738.39 L 179.24 741.89 Z" fill="#000000" style="fill: rgb(255, 255, 255); stroke: rgb(255, 255, 255);" stroke="#000000" stroke-miterlimit="10" pointer-events="all"/></g><g data-cell-id="170uqo_uxkxGRzme1Cgs-26"><g><g fill="#000000" style="fill: rgb(255, 255, 255);" font-family="Helvetica" text-anchor="middle" font-size="11px"><rect fill="#ffffff" stroke="none" x="239" y="715" width="24" height="14" style="fill: var(--ge-dark-color, #121212);" stroke-width="0"/><text x="250.28" y="725.1">Emit</text></g></g></g></g><g data-cell-id="3BqDlNYimaB-27dZIoCA-55"><g><path d="M 453.36 738.39 L 553.63 738.39" fill="none" stroke="#000000" style="stroke: rgb(255, 255, 255);" stroke-miterlimit="10" pointer-events="stroke"/><path d="M 558.88 738.39 L 551.88 741.89 L 553.63 738.39 L 551.88 734.89 Z" fill="#000000" style="fill: rgb(255, 255, 255); stroke: rgb(255, 255, 255);" stroke="#000000" stroke-miterlimit="10" pointer-events="all"/></g><g data-cell-id="170uqo_uxkxGRzme1Cgs-24"><g><g fill="#000000" style="fill: rgb(255, 255, 255);" font-family="Helvetica" text-anchor="middle" font-size="11px"><rect fill="#ffffff" stroke="none" x="487" y="715" width="24" height="14" style="fill: var(--ge-dark-color, #121212);" stroke-width="0"/><text x="498.15" y="725.1">DFS</text></g></g></g></g><g data-cell-id="3BqDlNYimaB-27dZIoCA-57"><g><path d="M 387.8 771.17 L 387.8 830.36" fill="none" stroke="#000000" style="stroke: rgb(255, 255, 255);" stroke-miterlimit="10" pointer-events="stroke"/><path d="M 387.8 835.61 L 384.3 828.61 L 387.8 830.36 L 391.3 828.61 Z" fill="#000000" style="fill: rgb(255, 255, 255); stroke: rgb(255, 255, 255);" stroke="#000000" stroke-miterlimit="10" pointer-events="all"/></g></g><g data-cell-id="3BqDlNYimaB-27dZIoCA-14"><g><rect x="322.24" y="705.61" width="131.12" height="65.56" fill="#ffffff" style="fill: var(--ge-dark-color, #121212); stroke: rgb(255, 255, 255);" stroke="#000000" pointer-events="all"/><path d="M 335.24 705.61 L 335.24 771.17 M 440.36 705.61 L 440.36 771.17" fill="none" stroke="#000000" style="stroke: rgb(255, 255, 255);" stroke-miterlimit="10" pointer-events="all"/></g><g><g fill="#000000" style="fill: rgb(255, 255, 255);" font-family="Helvetica" text-anchor="middle" font-size="12px"><text x="387.59" y="743.39"><tspan>Validate</tspan></text></g></g></g><g data-cell-id="3BqDlNYimaB-27dZIoCA-16"><g><rect x="560" y="705.61" width="131.12" height="65.56" rx="9.83" ry="9.83" fill="#ffffff" style="fill: var(--ge-dark-color, #121212); stroke: rgb(255, 255, 255);" stroke="#000000" pointer-events="all"/></g><g><g fill="#000000" style="fill: rgb(255, 255, 255);" font-family="Helvetica" text-anchor="middle" font-size="12px"><text x="625.56" y="743.39"><tspan>Validators</tspan></text></g></g></g><g data-cell-id="3BqDlNYimaB-27dZIoCA-48"><g><path d="M 387.75 443.37 L 387.75 492.54 L 387.79 535.34" fill="none" stroke="#000000" style="stroke: rgb(255, 255, 255);" stroke-miterlimit="10" pointer-events="stroke"/><path d="M 387.8 540.59 L 384.29 533.59 L 387.79 535.34 L 391.29 533.59 Z" fill="#000000" style="fill: rgb(255, 255, 255); stroke: rgb(255, 255, 255);" stroke="#000000" stroke-miterlimit="10" pointer-events="all"/></g></g><g data-cell-id="3BqDlNYimaB-27dZIoCA-20"><g><rect x="322.24" y="377.8" width="131.12" height="65.56" fill="#ffffff" style="fill: var(--ge-dark-color, #121212); stroke: rgb(255, 255, 255);" stroke="#000000" pointer-events="all"/><path d="M 335.24 377.8 L 335.24 443.37 M 440.36 377.8 L 440.36 443.37" fill="none" stroke="#000000" style="stroke: rgb(255, 255, 255);" stroke-miterlimit="10" pointer-events="all"/></g><g><g fill="#000000" style="fill: rgb(255, 255, 255);" font-family="Helvetica" text-anchor="middle" font-size="12px"><text x="387.59" y="415.59"><tspan>Initialization</tspan></text></g></g></g><g data-cell-id="3BqDlNYimaB-27dZIoCA-21"><g><rect x="599.6" y="383.27" width="51.9" height="54.63" fill="none" stroke="none" pointer-events="all"/><path d="M 599.6 389.56 C 599.99 386.24 602.59 383.63 605.86 383.27 L 640.73 383.27 L 651.51 394.14 L 651.51 431.11 C 651.32 434.75 648.48 437.67 644.9 437.9 L 605.86 437.9 C 602.63 437.55 600.06 435.02 599.6 431.77 Z M 603.85 430.78 C 603.85 432.09 604.76 433.23 606.02 433.49 L 644.98 433.49 C 646.22 433.2 647.11 432.08 647.1 430.78 L 647.1 396.68 L 638.39 396.68 L 638.39 387.74 L 606.02 387.74 C 604.86 388.03 604.02 389.06 603.96 390.28 Z M 613.21 400.76 L 637.25 400.76 L 637.25 405.29 L 613.21 405.29 Z M 613.21 409.37 L 637.25 409.37 L 637.25 413.9 L 613.21 413.9 Z M 613.21 417.98 L 637.25 417.98 L 637.25 422.56 L 613.21 422.56 Z" fill="#00bef2" style="fill: rgb(0, 137, 182);" stroke="none" pointer-events="all"/></g><g><g fill="#000000" style="fill: rgb(255, 255, 255);" font-family="Helvetica" text-anchor="middle" font-size="12px"><text x="625.56" y="455.9">Configuration</text></g></g></g><g data-cell-id="3BqDlNYimaB-27dZIoCA-23"><g><path d="M 50 771.17 L 70 705.61 L 161.12 705.61 L 181.12 771.17 Z" fill="#ffffff" style="fill: var(--ge-dark-color, #121212); stroke: rgb(255, 255, 255);" stroke="#000000" stroke-miterlimit="10" pointer-events="all"/></g><g><g fill="#000000" style="fill: rgb(255, 255, 255);" font-family="Helvetica" text-anchor="middle" font-size="12px"><text x="115.56" y="743.39"><tspan>Diagnostics</tspan></text></g></g></g><g data-cell-id="3BqDlNYimaB-27dZIoCA-72"><g><path d="M 115.56 607.27 L 115.56 699.24" fill="none" stroke="#000000" style="stroke: rgb(255, 255, 255);" stroke-miterlimit="10" pointer-events="stroke"/><path d="M 115.56 704.49 L 112.06 697.49 L 115.56 699.24 L 119.06 697.49 Z" fill="#000000" style="fill: rgb(255, 255, 255); stroke: rgb(255, 255, 255);" stroke="#000000" stroke-miterlimit="10" pointer-events="all"/></g></g><g data-cell-id="170uqo_uxkxGRzme1Cgs-10"><g><path d="M 181.12 574.49 L 315.87 574.49" fill="none" stroke="#000000" style="stroke: rgb(255, 255, 255);" stroke-miterlimit="10" pointer-events="stroke"/><path d="M 321.12 574.49 L 314.12 577.99 L 315.87 574.49 L 314.12 570.99 Z" fill="#000000" style="fill: rgb(255, 255, 255); stroke: rgb(255, 255, 255);" stroke="#000000" stroke-miterlimit="10" pointer-events="all"/></g><g data-cell-id="170uqo_uxkxGRzme1Cgs-11"><g><g fill="#000000" style="fill: rgb(255, 255, 255);" font-family="Helvetica" text-anchor="middle" font-size="11px"><rect fill="#ffffff" stroke="none" x="195" y="558" width="100" height="14" style="fill: var(--ge-dark-color, #121212);" stroke-width="0"/><text x="244.58" y="568.2">Continuous analysis</text></g></g></g></g><g data-cell-id="3BqDlNYimaB-27dZIoCA-24"><g><rect x="50" y="541.71" width="131.12" height="65.56" rx="9.83" ry="9.83" fill="#ffffff" style="fill: var(--ge-dark-color, #121212); stroke: rgb(255, 255, 255);" stroke="#000000" pointer-events="all"/></g><g><g fill="#000000" style="fill: rgb(255, 255, 255);" font-family="Helvetica" text-anchor="middle" font-size="12px"><text x="115.56" y="579.49"><tspan>Language Server</tspan></text></g></g></g><g data-cell-id="3BqDlNYimaB-27dZIoCA-73"><g><path d="M 115.56 443.37 L 115.56 535.34" fill="none" stroke="#000000" style="stroke: rgb(255, 255, 255);" stroke-miterlimit="10" pointer-events="stroke"/><path d="M 115.56 540.59 L 112.06 533.59 L 115.56 535.34 L 119.06 533.59 Z" fill="#000000" style="fill: rgb(255, 255, 255); stroke: rgb(255, 255, 255);" stroke="#000000" stroke-miterlimit="10" pointer-events="all"/></g><g data-cell-id="170uqo_uxkxGRzme1Cgs-21"><g><g fill="#000000" style="fill: rgb(255, 255, 255);" font-family="Helvetica" text-anchor="middle" font-size="11px"><rect fill="#ffffff" stroke="none" x="106" y="478" width="23" height="14" style="fill: var(--ge-dark-color, #121212);" stroke-width="0"/><text x="116.77" y="488.91">LSP</text></g></g></g></g><g data-cell-id="3BqDlNYimaB-27dZIoCA-25"><g><rect x="50" y="377.8" width="131.12" height="65.56" rx="9.83" ry="9.83" fill="#ffffff" style="fill: var(--ge-dark-color, #121212); stroke: rgb(255, 255, 255);" stroke="#000000" pointer-events="all"/></g><g><g fill="#000000" style="fill: rgb(255, 255, 255);" font-family="Helvetica" text-anchor="middle" font-size="12px"><text x="115.56" y="415.59"><tspan>Gleece IDE Plugin</tspan></text></g></g></g><g data-cell-id="3BqDlNYimaB-27dZIoCA-61"><g><path d="M 387.8 902.29 L 387.8 966.95" fill="none" stroke="#000000" style="stroke: rgb(255, 255, 255);" stroke-miterlimit="10" pointer-events="stroke"/><path d="M 387.8 972.2 L 384.3 965.2 L 387.8 966.95 L 391.3 965.2 Z" fill="#000000" style="fill: rgb(255, 255, 255); stroke: rgb(255, 255, 255);" stroke="#000000" stroke-miterlimit="10" pointer-events="all"/></g><g data-cell-id="170uqo_uxkxGRzme1Cgs-22"><g><g fill="#000000" style="fill: rgb(255, 255, 255);" font-family="Helvetica" text-anchor="middle" font-size="11px"><rect fill="#ffffff" stroke="none" x="307" y="932" width="163" height="14" style="fill: var(--ge-dark-color, #121212);" stroke-width="0"/><text x="388.01" y="942.83">Operations, Models, Security etc.</text></g></g></g></g><g data-cell-id="3BqDlNYimaB-27dZIoCA-28"><g><rect x="322.24" y="836.73" width="131.12" height="65.56" fill="#ffffff" style="fill: var(--ge-dark-color, #121212); stroke: rgb(255, 255, 255);" stroke="#000000" pointer-events="all"/><path d="M 335.24 836.73 L 335.24 902.29 M 440.36 836.73 L 440.36 902.29" fill="none" stroke="#000000" style="stroke: rgb(255, 255, 255);" stroke-miterlimit="10" pointer-events="all"/></g><g><g fill="#000000" style="fill: rgb(255, 255, 255);" font-family="Helvetica" text-anchor="middle" font-size="12px"><text x="387.59" y="874.51"><tspan>Reduce</tspan></text></g></g></g><g data-cell-id="3BqDlNYimaB-27dZIoCA-29"><g><path d="M 540.78 1170 L 560.78 1104.44 L 651.9 1104.44 L 671.9 1170 Z" fill="#ffffff" style="fill: var(--ge-dark-color, #121212); stroke: rgb(255, 255, 255);" stroke="#000000" stroke-miterlimit="10" pointer-events="all"/></g><g><g fill="#000000" style="fill: rgb(255, 255, 255);" font-family="Helvetica" text-anchor="middle" font-size="12px"><text x="606.34" y="1142.22"><tspan>Routing Code</tspan></text></g></g></g><g data-cell-id="3BqDlNYimaB-27dZIoCA-65"><g><path d="M 606.34 1038.88 L 606.34 1098.07" fill="none" stroke="#000000" style="stroke: rgb(255, 255, 255);" stroke-miterlimit="10" pointer-events="stroke"/><path d="M 606.34 1103.32 L 602.84 1096.32 L 606.34 1098.07 L 609.84 1096.32 Z" fill="#000000" style="fill: rgb(255, 255, 255); stroke: rgb(255, 255, 255);" stroke="#000000" stroke-miterlimit="10" pointer-events="all"/></g><g data-cell-id="170uqo_uxkxGRzme1Cgs-28"><g><g fill="#000000" style="fill: rgb(255, 255, 255);" font-family="Helvetica" text-anchor="middle" font-size="11px"><rect fill="#ffffff" stroke="none" x="583" y="1064" width="48" height="14" style="fill: var(--ge-dark-color, #121212);" stroke-width="0"/><text x="606.54" y="1074.75">Generate</text></g></g></g></g><g data-cell-id="3BqDlNYimaB-27dZIoCA-30"><g><rect x="540.78" y="973.32" width="131.12" height="65.56" fill="#ffffff" style="fill: var(--ge-dark-color, #121212); stroke: rgb(255, 255, 255);" stroke="#000000" pointer-events="all"/><path d="M 553.78 973.32 L 553.78 1038.88 M 658.9 973.32 L 658.9 1038.88" fill="none" stroke="#000000" style="stroke: rgb(255, 255, 255);" stroke-miterlimit="10" pointer-events="all"/></g><g><g fill="#000000" style="fill: rgb(255, 255, 255);" font-family="Helvetica" text-anchor="middle" font-size="12px"><text x="606.13" y="1011.1"><tspan>Template Engine</tspan></text></g></g></g><g data-cell-id="3BqDlNYimaB-27dZIoCA-62"><g><path d="M 453.36 1006.1 L 534.41 1006.1" fill="none" stroke="#000000" style="stroke: rgb(255, 255, 255);" stroke-miterlimit="10" pointer-events="stroke"/><path d="M 539.66 1006.1 L 532.66 1009.6 L 534.41 1006.1 L 532.66 1002.6 Z" fill="#000000" style="fill: rgb(255, 255, 255); stroke: rgb(255, 255, 255);" stroke="#000000" stroke-miterlimit="10" pointer-events="all"/></g></g><g data-cell-id="170uqo_uxkxGRzme1Cgs-33"><g><path d="M 322.24 1006.08 L 276.67 1006.08 L 237.49 1006.1" fill="none" stroke="#000000" style="stroke: rgb(255, 255, 255);" stroke-miterlimit="10" pointer-events="stroke"/><path d="M 232.24 1006.1 L 239.24 1002.6 L 237.49 1006.1 L 239.24 1009.6 Z" fill="#000000" style="fill: rgb(255, 255, 255); stroke: rgb(255, 255, 255);" stroke="#000000" stroke-miterlimit="10" pointer-events="all"/></g></g><g data-cell-id="3BqDlNYimaB-27dZIoCA-34"><g><rect x="322.24" y="973.32" width="131.12" height="65.56" fill="#ffffff" style="fill: var(--ge-dark-color, #121212); stroke: rgb(255, 255, 255);" stroke="#000000" pointer-events="all"/><path d="M 335.24 973.32 L 335.24 1038.88 M 440.36 973.32 L 440.36 1038.88" fill="none" stroke="#000000" style="stroke: rgb(255, 255, 255);" stroke-miterlimit="10" pointer-events="all"/></g><g><g fill="#000000" style="fill: rgb(255, 255, 255);" font-family="Helvetica" text-anchor="middle" font-size="12px"><text x="387.59" y="1011.1"><tspan>Emit</tspan></text></g></g></g><g data-cell-id="3BqDlNYimaB-27dZIoCA-47"><g><path d="M 453.36 410.59 L 593.24 410.59" fill="none" stroke="#000000" style="stroke: rgb(255, 255, 255);" stroke-miterlimit="10" pointer-events="stroke"/><path d="M 598.49 410.59 L 591.49 414.09 L 593.24 410.59 L 591.49 407.09 Z" fill="#000000" style="fill: rgb(255, 255, 255); stroke: rgb(255, 255, 255);" stroke="#000000" stroke-miterlimit="10" pointer-events="all"/></g><g data-cell-id="170uqo_uxkxGRzme1Cgs-18"><g><g fill="#000000" style="fill: rgb(255, 255, 255);" font-family="Helvetica" text-anchor="middle" font-size="11px"><rect fill="#ffffff" stroke="none" x="516" y="394" width="28" height="14" style="fill: var(--ge-dark-color, #121212);" stroke-width="0"/><text x="529.07" y="404.29">Read</text></g></g></g></g><g data-cell-id="3BqDlNYimaB-27dZIoCA-112"><g><rect x="529.85" y="153.8" width="65.56" height="32.78" fill="#ffffff" style="fill: var(--ge-dark-color, #121212); stroke: rgb(255, 255, 255);" stroke="#000000" pointer-events="all"/><path d="M 536.85 153.8 L 536.85 186.59 M 588.41 153.8 L 588.41 186.59" fill="none" stroke="#000000" style="stroke: rgb(255, 255, 255);" stroke-miterlimit="10" pointer-events="all"/></g></g><g data-cell-id="3BqDlNYimaB-27dZIoCA-113"><g><rect x="631.47" y="152.81" width="65.56" height="33.77" fill="none" stroke="none" pointer-events="all"/></g><g><g fill="#556B82" style="fill: rgb(131, 150, 170);" font-family="Helvetica" font-size="10px"><text x="633.47" y="173.7">Process</text></g></g></g><g data-cell-id="3BqDlNYimaB-27dZIoCA-114"><g><path d="M 549.85 93.71 L 575.41 93.71 L 595.41 115.56 L 575.41 137.41 L 549.85 137.41 L 529.85 115.56 Z" fill="#ffffff" style="fill: var(--ge-dark-color, #121212); stroke: rgb(255, 255, 255);" stroke="#000000" stroke-miterlimit="10" pointer-events="all"/></g></g><g data-cell-id="3BqDlNYimaB-27dZIoCA-115"><g><rect x="631.47" y="98.68" width="65.56" height="33.77" fill="none" stroke="none" pointer-events="all"/></g><g><g fill="#556B82" style="fill: rgb(131, 150, 170);" font-family="Helvetica" font-size="10px"><text x="633.47" y="119.57">Endtrypoint</text></g></g></g><g data-cell-id="3BqDlNYimaB-27dZIoCA-116"><g><rect x="529.85" y="202.98" width="65.56" height="32.78" rx="4.92" ry="4.92" fill="#ffffff" style="fill: var(--ge-dark-color, #121212); stroke: rgb(255, 255, 255);" stroke="#000000" pointer-events="all"/></g></g><g data-cell-id="3BqDlNYimaB-27dZIoCA-117"><g><rect x="631.47" y="202.98" width="65.56" height="33.77" fill="none" stroke="none" pointer-events="all"/></g><g><g fill="#556B82" style="fill: rgb(131, 150, 170);" font-family="Helvetica" font-size="10px"><text x="633.47" y="223.86">Entity</text></g></g></g><g data-cell-id="3BqDlNYimaB-27dZIoCA-118"><g><path d="M 518.92 301.32 L 538.92 257.61 L 586.34 257.61 L 606.34 301.32 Z" fill="#ffffff" style="fill: var(--ge-dark-color, #121212); stroke: rgb(255, 255, 255);" stroke="#000000" stroke-miterlimit="10" pointer-events="all"/></g></g><g data-cell-id="3BqDlNYimaB-27dZIoCA-119"><g><rect x="631.47" y="262.58" width="65.56" height="33.77" fill="none" stroke="none" pointer-events="all"/></g><g><g fill="#556B82" style="fill: rgb(131, 150, 170);" font-family="Helvetica" font-size="10px"><text x="633.47" y="283.47">Output</text></g></g></g><g data-cell-id="RR7k675t7GHK7Rb6-Nce-1"><g><path d="M 691.12 574.49 L 783.09 574.49" fill="none" stroke="#000000" style="stroke: rgb(255, 255, 255);" stroke-miterlimit="10" pointer-events="stroke"/><path d="M 788.34 574.49 L 781.34 577.99 L 783.09 574.49 L 781.34 570.99 Z" fill="#000000" style="fill: rgb(255, 255, 255); stroke: rgb(255, 255, 255);" stroke="#000000" stroke-miterlimit="10" pointer-events="all"/></g><g data-cell-id="170uqo_uxkxGRzme1Cgs-17"><g><g fill="#000000" style="fill: rgb(255, 255, 255);" font-family="Helvetica" text-anchor="middle" font-size="11px"><rect fill="#ffffff" stroke="none" x="726" y="555" width="26" height="14" style="fill: var(--ge-dark-color, #121212);" stroke-width="0"/><text x="738.07" y="565.2">Load</text></g></g></g></g><g data-cell-id="170uqo_uxkxGRzme1Cgs-15"><g><path d="M 249.67 137.41 L 249.67 247 L 187.49 247" fill="none" stroke="#000000" style="stroke: rgb(255, 255, 255);" stroke-miterlimit="10" pointer-events="stroke"/><path d="M 182.24 247 L 189.24 243.5 L 187.49 247 L 189.24 250.5 Z" fill="#000000" style="fill: rgb(255, 255, 255); stroke: rgb(255, 255, 255);" stroke="#000000" stroke-miterlimit="10" pointer-events="all"/></g><g data-cell-id="170uqo_uxkxGRzme1Cgs-19"><g><g fill="#000000" style="fill: rgb(255, 255, 255);" font-family="Helvetica" text-anchor="middle" font-size="11px"><rect fill="#ffffff" stroke="none" x="193" y="224" width="39" height="14" style="fill: var(--ge-dark-color, #121212);" stroke-width="0"/><text x="212.38" y="234.71">Interact</text></g></g></g></g><g data-cell-id="170uqo_uxkxGRzme1Cgs-16"><g><path d="M 249.67 137.41 L 249.67 247 L 315.87 247" fill="none" stroke="#000000" style="stroke: rgb(255, 255, 255);" stroke-miterlimit="10" pointer-events="stroke"/><path d="M 321.12 247 L 314.12 250.5 L 315.87 247 L 314.12 243.5 Z" fill="#000000" style="fill: rgb(255, 255, 255); stroke: rgb(255, 255, 255);" stroke="#000000" stroke-miterlimit="10" pointer-events="all"/></g><g data-cell-id="170uqo_uxkxGRzme1Cgs-20"><g><g fill="#000000" style="fill: rgb(255, 255, 255);" font-family="Helvetica" text-anchor="middle" font-size="11px"><rect fill="#ffffff" stroke="none" x="267" y="224" width="41" height="14" style="fill: var(--ge-dark-color, #121212);" stroke-width="0"/><text x="287.29" y="234.71">Execute</text></g></g></g></g><g data-cell-id="170uqo_uxkxGRzme1Cgs-1"><g><path d="M 204.12 50 L 295.24 50 L 315.24 93.71 L 295.24 137.41 L 204.12 137.41 L 184.12 93.71 Z" fill="#ffffff" style="fill: var(--ge-dark-color, #121212); stroke: rgb(255, 255, 255);" stroke="#000000" stroke-miterlimit="10" pointer-events="all"/></g><g><g fill="#000000" style="fill: rgb(255, 255, 255);" font-family="Helvetica" text-anchor="middle" font-size="12px"><text x="249.68" y="98.71"><tspan>User</tspan></text></g></g></g><g data-cell-id="170uqo_uxkxGRzme1Cgs-4"><g><path d="M 387.8 279.46 L 387.8 371.44" fill="none" stroke="#000000" style="stroke: rgb(255, 255, 255);" stroke-miterlimit="10" pointer-events="stroke"/><path d="M 387.8 376.69 L 384.3 369.69 L 387.8 371.44 L 391.3 369.69 Z" fill="#000000" style="fill: rgb(255, 255, 255); stroke: rgb(255, 255, 255);" stroke="#000000" stroke-miterlimit="10" pointer-events="all"/></g></g><g data-cell-id="170uqo_uxkxGRzme1Cgs-2"><g><rect x="322.24" y="213.9" width="131.12" height="65.56" rx="9.83" ry="9.83" fill="#ffffff" style="fill: var(--ge-dark-color, #121212); stroke: rgb(255, 255, 255);" stroke="#000000" pointer-events="all"/></g><g><g fill="#000000" style="fill: rgb(255, 255, 255);" font-family="Helvetica" text-anchor="middle" font-size="12px"><text x="387.8" y="251.68"><tspan>CLI</tspan></text></g></g></g><g data-cell-id="170uqo_uxkxGRzme1Cgs-6"><g><path d="M 115.56 279.46 L 115.56 371.44" fill="none" stroke="#000000" style="stroke: rgb(255, 255, 255);" stroke-miterlimit="10" pointer-events="stroke"/><path d="M 115.56 376.69 L 112.06 369.69 L 115.56 371.44 L 119.06 369.69 Z" fill="#000000" style="fill: rgb(255, 255, 255); stroke: rgb(255, 255, 255);" stroke="#000000" stroke-miterlimit="10" pointer-events="all"/></g></g><g data-cell-id="170uqo_uxkxGRzme1Cgs-5"><g><rect x="50" y="213.9" width="131.12" height="65.56" rx="9.83" ry="9.83" fill="#ffffff" style="fill: var(--ge-dark-color, #121212); stroke: rgb(255, 255, 255);" stroke="#000000" pointer-events="all"/></g><g><g fill="#000000" style="fill: rgb(255, 255, 255);" font-family="Helvetica" text-anchor="middle" font-size="12px"><text x="115.56" y="251.68"><tspan>IDE</tspan></text></g></g></g><g data-cell-id="170uqo_uxkxGRzme1Cgs-32"><g><path d="M 165.56 1038.88 L 165.58 1071.67 L 165.55 1098.07" fill="none" stroke="#000000" style="stroke: rgb(255, 255, 255);" stroke-miterlimit="10" pointer-events="stroke"/><path d="M 165.54 1103.32 L 162.05 1096.32 L 165.55 1098.07 L 169.05 1096.33 Z" fill="#000000" style="fill: rgb(255, 255, 255); stroke: rgb(255, 255, 255);" stroke="#000000" stroke-miterlimit="10" pointer-events="all"/></g><g data-cell-id="170uqo_uxkxGRzme1Cgs-34"><g><g fill="#000000" style="fill: rgb(255, 255, 255);" font-family="Helvetica" text-anchor="middle" font-size="11px"><rect fill="#ffffff" stroke="none" x="142" y="1066" width="48" height="14" style="fill: var(--ge-dark-color, #121212);" stroke-width="0"/><text x="165.79" y="1076.59">Generate</text></g></g></g></g><g data-cell-id="170uqo_uxkxGRzme1Cgs-31"><g><path d="M 100 1170 L 120 1104.44 L 211.12 1104.44 L 231.12 1170 Z" fill="#ffffff" style="fill: var(--ge-dark-color, #121212); stroke: rgb(255, 255, 255);" stroke="#000000" stroke-miterlimit="10" pointer-events="all"/></g><g><g fill="#000000" style="fill: rgb(255, 255, 255);" font-family="Helvetica" text-anchor="middle" font-size="12px"><text x="165.56" y="1142.22"><tspan>OpenAPI Schema</tspan></text></g></g></g><g data-cell-id="170uqo_uxkxGRzme1Cgs-35"><g><rect x="100" y="973.32" width="131.12" height="65.56" fill="#ffffff" style="fill: var(--ge-dark-color, #121212); stroke: rgb(255, 255, 255);" stroke="#000000" pointer-events="all"/><path d="M 113 973.32 L 113 1038.88 M 218.12 973.32 L 218.12 1038.88" fill="none" stroke="#000000" style="stroke: rgb(255, 255, 255);" stroke-miterlimit="10" pointer-events="all"/></g><g><g fill="#000000" style="fill: rgb(255, 255, 255);" font-family="Helvetica" text-anchor="middle" font-size="12px"><text x="165.35" y="1004.1">OpenAPI</text><text x="165.35" y="1018.1">Generator</text></g></g></g></g></g></g></g></svg>